<?xml version="1.0" encoding="UTF-8"?>
<svg width="15px" height="18px" viewBox="0 0 15 18" version="1.1" xmlns="http://www.w3.org/2000/svg" xmlns:xlink="http://www.w3.org/1999/xlink">
    <!-- Generator: sketchtool 57.1 (101010) - https://sketch.com -->
    <title>F2C0674B-848A-407C-89FC-C95E1EC40380</title>
    <desc>Created with sketchtool.</desc>
    <g id="Store-Locator-V2" stroke="none" stroke-width="1" fill="none" fill-rule="evenodd">
        <g id="06_HPStore-detail" transform="translate(-280.000000, -230.000000)" fill="#D4D4D4">
            <g id="Adresse" transform="translate(70.000000, 224.000000)">
                <g id="icon/ico_calendar" transform="translate(205.000000, 3.000000)">
                    <g id="calendar" transform="translate(5.000000, 3.000000)">
                        <polygon id="Fill-1" points="8.66862138e-13 17.801375 14.8809524 17.801375 14.8809524 6.457125 8.66862138e-13 6.457125"></polygon>
                        <path d="M12.7915,1.641275 L12.7915,2.724775 C12.7915,3.366525 12.294119,3.888775 11.6831667,3.888775 L10.8422143,3.888775 C10.2310238,3.888775 9.73388095,3.366525 9.73388095,2.724775 L9.73388095,1.641275 L5.04530952,1.641275 L5.04530952,2.724775 C5.04530952,3.366525 4.54792857,3.888775 3.9367381,3.888775 L3.09602381,3.888775 C2.48483333,3.888775 1.98745238,3.366525 1.98745238,2.724775 L1.98745238,1.641275 L7.14285715e-05,1.641275 L7.14285715e-05,5.387025 L14.8810238,5.387025 L14.8810238,1.641275 L12.7915,1.641275 Z" id="Fill-5"></path>
                        <path d="M3.32019048,3.03255 L3.71257143,3.03255 C3.99828571,3.03255 4.22995238,2.7893 4.22995238,2.4893 L4.22995238,0.79305 C4.22995238,0.4933 3.99828571,0.25005 3.71257143,0.25005 L3.32019048,0.25005 C3.03447619,0.25005 2.80280952,0.4933 2.80280952,0.79305 L2.80280952,2.4893 C2.80280952,2.7893 3.03447619,3.03255 3.32019048,3.03255" id="Fill-2"></path>
                        <path d="M11.0664524,3.03255 L11.4588333,3.03255 C11.7445476,3.03255 11.9762143,2.7893 11.9762143,2.4893 L11.9762143,0.79305 C11.9762143,0.4933 11.7445476,0.25005 11.4588333,0.25005 L11.0664524,0.25005 C10.7807381,0.25005 10.5490714,0.4933 10.5490714,0.79305 L10.5490714,2.4893 C10.5490714,2.7893 10.7807381,3.03255 11.0664524,3.03255" id="Fill-8"></path>
                    </g>
                </g>
            </g>
        </g>
    </g>
</svg>