<?xml version="1.0" encoding="UTF-8"?>
<svg width="19px" height="18px" viewBox="0 0 19 18" version="1.1" xmlns="http://www.w3.org/2000/svg" xmlns:xlink="http://www.w3.org/1999/xlink">
    <!-- Generator: sketchtool 57.1 (101010) - https://sketch.com -->
    <title>242EFB68-A402-4289-A522-A907CA10F58F</title>
    <desc>Created with sketchtool.</desc>
    <g id="Store-Locator-V2" stroke="none" stroke-width="1" fill="none" fill-rule="evenodd">
        <g id="06_HPStore-detail" transform="translate(-73.000000, -749.000000)">
            <g id="Horaire" transform="translate(70.000000, 556.000000)">
                <g id="Group-4" transform="translate(0.000000, 190.000000)">
                    <g id="icon/ico_clock">
                        <g id="noun_clock_2810227" transform="translate(3.130435, 3.000000)">
                            <path d="M9.36514473,0 C14.5447499,0 18.7826087,4.01114206 18.7826087,8.97493036 C18.7826087,13.9387187 14.5447499,18 9.36514473,18 C4.18553954,18 0,13.9387187 0,8.97493036 C0,4.01114206 4.18553954,0 9.36514473,0 Z" id="Path" fill="#1F368B" fill-rule="nonzero"></path>
                            <path d="M9.39130435,3.52631579 C9.39130435,3.26315789 9.63740771,3 9.88351107,3 C10.1788351,3 10.3757178,3.26315789 10.3757178,3.52631579 L10.3757178,8.94736842 L14.1164889,8.94736842 C14.411813,8.94736842 14.6086957,9.21052632 14.6086957,9.47368421 C14.6086957,9.78947368 14.411813,10 14.1164889,10 L9.39130435,10 L9.39130435,3.52631579 Z" id="Path" fill="#FFFFFF"></path>
                        </g>
                    </g>
                </g>
            </g>
        </g>
    </g>
</svg>