<?xml version="1.0" encoding="UTF-8"?>
<svg width="13px" height="22px" viewBox="0 0 13 22" version="1.1" xmlns="http://www.w3.org/2000/svg">
    <g id="Page-1" stroke="none" stroke-width="1" fill="none" fill-rule="evenodd">
        <g id="68_39_Page_Article_Instit" transform="translate(-828.000000, -4340.000000)" fill="#cfcfcf" fill-rule="nonzero">
            <g id="Content" transform="translate(276.000000, 729.000000)">
                <g id="Contact-presse" transform="translate(1.000000, 3457.000000)">
                    <g id="01" transform="translate(549.000000, 119.000000)">
                        <g id="Group-5-Copy" transform="translate(1.000000, 32.000000)">
                            <g id="Group-4-Copy" transform="translate(1.000000, 0.000000)">
                                <path d="M10.2671078,3 L1.99735544,3 C0.876033089,3 0,3.91107441 0,4.99735544 L0,22.2026453 C0,23.3239677 0.911074413,24.2000008 1.99735544,24.2000008 L10.2671078,24.2000008 C11.3884302,24.2000008 12.2644633,23.2889263 12.2644633,22.2026453 L12.2644633,4.99735544 C12.2644633,3.87603309 11.3533888,3 10.2671078,3 Z M6.13223163,23.1487611 C5.40723872,23.1487611 4.81818199,22.5597043 4.81818199,21.8347114 C4.81818199,21.1097185 5.40723872,20.5206618 6.13223163,20.5206618 C6.85722453,20.5206618 7.44628126,21.1097185 7.44628126,21.8347114 C7.44628126,22.5597043 6.85722453,23.1487611 6.13223163,23.1487611 Z M1.31404963,18.3818188 L1.31404963,6.19008272 C1.31404963,5.63779797 1.76176488,5.19008272 2.31404963,5.19008272 L9.95041362,5.19008272 C10.5026984,5.19008272 10.9504136,5.63779797 10.9504136,6.19008272 L10.9504136,18.3818188 C10.9504136,18.9341035 10.5026984,19.3818188 9.95041362,19.3818188 L2.31404963,19.3818188 C1.76176488,19.3818188 1.31404963,18.9341035 1.31404963,18.3818188 Z" id="ico_phone"></path>
                            </g>
                        </g>
                    </g>
                </g>
            </g>
        </g>
    </g>
</svg>
